# xmcd
#
# Track frame offsets:
#	150
#	13922
#	34312
#	44132
#	62205
#	81405
#	117445
#	145937
#	165490
#	186582
#	194487
#	238307
#
# Disc length: 3479 seconds
#
# Revision: 0
# Processed by: cddbd v1.5.1PL0 Copyright (c) Steve Scherf et al.
# Submitted via: dBpowerAMP V4.0
#
DISCID=be0d950c
DTITLE=Raymond Froggatt - At The London Palladium
DYEAR=1900
DGENRE=
TTITLE0=All Because Of you
TTITLE1=Somewhere Under The Sun
TTITLE2=Roly
TTITLE3=Everybody Falls In Love
TTITLE4=Belle Of The Ball
TTITLE5=Moment In Time
TTITLE6=Wings On My Heels
TTITLE7=Wishgiver
TTITLE8=I Did It All With You
TTITLE9=Always Goodbye
TTITLE10=Song With No Name
TTITLE11=I Ride A Horse
EXTD=
EXTT0=
EXTT1=
EXTT2=
EXTT3=
EXTT4=
EXTT5=
EXTT6=
EXTT7=
EXTT8=
EXTT9=
EXTT10=
EXTT11=
PLAYORDER=
